# xmcd
#
# Track frame offsets:
#	150
#	19816
#	40961
#	57044
#	74812
#	93643
#	108625
#	132850
#
# Disc length: 2025 seconds
#
# Revision: 9
# Processed by: cddbd v1.5.2PL0 Copyright (c) Steve Scherf et al.
# Submitted via: audiograbber 1.83.01
#
DISCID=7307e708
DTITLE=Bachman-Turner Overdrive - Classic Album Set [2016] [CD 4) - Four Wheel 
DTITLE=Drive
DYEAR=1975
DGENRE=Rock
TTITLE0=Four Wheel Drive
TTITLE1=She's A Devil
TTITLE2=Hey You
TTITLE3=Flat Broke Love
TTITLE4=She's Keepin Time
TTITLE5=Quick Change Artist
TTITLE6=Lowland Fling
TTITLE7=Don't Let The Blues Get You Down
EXTD=
EXTT0=
EXTT1=
EXTT2=
EXTT3=
EXTT4=
EXTT5=
EXTT6=
EXTT7=
PLAYORDER=
